<?xml version="1.0" encoding="UTF-8" standalone="no"?>
<!DOCTYPE svg PUBLIC "-//W3C//DTD SVG 1.1//EN"
 "http://www.w3.org/Graphics/SVG/1.1/DTD/svg11.dtd">
<!-- Generated by graphviz version 2.47.0 (20210316.0004)
 -->
<!-- Title: dbml Pages: 1 -->
<svg width="2523pt" height="2080pt"
 viewBox="0.00 0.00 2522.99 2079.69" xmlns="http://www.w3.org/2000/svg" xmlns:xlink="http://www.w3.org/1999/xlink">
<g id="graph0" class="graph" transform="scale(1 1) rotate(0) translate(4 2075.69)">
<title>dbml</title>
<!-- Dog -->
<g id="Dog" class="node">
<title>Dog</title>
<ellipse fill="none" stroke="black" stroke-width="0" cx="1597.94" cy="-474.79" rx="265.33" ry="427.19"/>
<polygon fill="#1d71b8" stroke="transparent" points="1412.94,-714.79 1412.94,-774.79 1783.94,-774.79 1783.94,-714.79 1412.94,-714.79"/>
<polygon fill="none" stroke="#29235c" points="1412.94,-714.79 1412.94,-774.79 1783.94,-774.79 1783.94,-714.79 1412.94,-714.79"/>
<text text-anchor="start" x="1506.85" y="-735.99" font-family="Helvetica,sans-Serif" font-weight="bold" font-size="32.00" fill="#ffffff"> &#160;&#160;&#160;&#160;&#160;&#160;Dog &#160;&#160;&#160;&#160;&#160;&#160;</text>
<polygon fill="#e7e2dd" stroke="transparent" points="1412.94,-654.79 1412.94,-714.79 1783.94,-714.79 1783.94,-654.79 1412.94,-654.79"/>
<polygon fill="none" stroke="#29235c" points="1412.94,-654.79 1412.94,-714.79 1783.94,-714.79 1783.94,-654.79 1412.94,-654.79"/>
<text text-anchor="start" x="1423.94" y="-675.99" font-family="Helvetica,sans-Serif" font-weight="bold" font-size="32.00" fill="#29235c">id</text>
<text text-anchor="start" x="1448.83" y="-675.99" font-family="Helvetica,sans-Serif" font-size="32.00" fill="#29235c"> &#160;&#160;&#160;</text>
<text text-anchor="start" x="1630.72" y="-675.99" font-family="Helvetica,sans-Serif" font-style="italic" font-size="32.00" fill="#29235c">INTEGER</text>
<polygon fill="#e7e2dd" stroke="transparent" points="1412.94,-594.79 1412.94,-654.79 1783.94,-654.79 1783.94,-594.79 1412.94,-594.79"/>
<polygon fill="none" stroke="#29235c" points="1412.94,-594.79 1412.94,-654.79 1783.94,-654.79 1783.94,-594.79 1412.94,-594.79"/>
<text text-anchor="start" x="1423.94" y="-614.99" font-family="Helvetica,sans-Serif" font-size="32.00" fill="#29235c">owner_id &#160;&#160;&#160;</text>
<text text-anchor="start" x="1630.72" y="-615.99" font-family="Helvetica,sans-Serif" font-style="italic" font-size="32.00" fill="#29235c">INTEGER</text>
<polygon fill="#e7e2dd" stroke="transparent" points="1412.94,-534.79 1412.94,-594.79 1783.94,-594.79 1783.94,-534.79 1412.94,-534.79"/>
<polygon fill="none" stroke="#29235c" points="1412.94,-534.79 1412.94,-594.79 1783.94,-594.79 1783.94,-534.79 1412.94,-534.79"/>
<text text-anchor="start" x="1423.94" y="-554.99" font-family="Helvetica,sans-Serif" font-size="32.00" fill="#29235c">name &#160;&#160;&#160;</text>
<text text-anchor="start" x="1616.51" y="-555.99" font-family="Helvetica,sans-Serif" font-style="italic" font-size="32.00" fill="#29235c">VARCHAR</text>
<polygon fill="#e7e2dd" stroke="transparent" points="1412.94,-474.79 1412.94,-534.79 1783.94,-534.79 1783.94,-474.79 1412.94,-474.79"/>
<polygon fill="none" stroke="#29235c" points="1412.94,-474.79 1412.94,-534.79 1783.94,-534.79 1783.94,-474.79 1412.94,-474.79"/>
<text text-anchor="start" x="1423.94" y="-494.99" font-family="Helvetica,sans-Serif" font-size="32.00" fill="#29235c">breed &#160;&#160;&#160;</text>
<text text-anchor="start" x="1616.51" y="-495.99" font-family="Helvetica,sans-Serif" font-style="italic" font-size="32.00" fill="#29235c">VARCHAR</text>
<polygon fill="#e7e2dd" stroke="transparent" points="1412.94,-414.79 1412.94,-474.79 1783.94,-474.79 1783.94,-414.79 1412.94,-414.79"/>
<polygon fill="none" stroke="#29235c" points="1412.94,-414.79 1412.94,-474.79 1783.94,-474.79 1783.94,-414.79 1412.94,-414.79"/>
<text text-anchor="start" x="1423.94" y="-434.99" font-family="Helvetica,sans-Serif" font-size="32.00" fill="#29235c">size &#160;&#160;&#160;</text>
<text text-anchor="start" x="1616.51" y="-435.99" font-family="Helvetica,sans-Serif" font-style="italic" font-size="32.00" fill="#29235c">VARCHAR</text>
<polygon fill="#e7e2dd" stroke="transparent" points="1412.94,-354.79 1412.94,-414.79 1783.94,-414.79 1783.94,-354.79 1412.94,-354.79"/>
<polygon fill="none" stroke="#29235c" points="1412.94,-354.79 1412.94,-414.79 1783.94,-414.79 1783.94,-354.79 1412.94,-354.79"/>
<text text-anchor="start" x="1423.94" y="-374.99" font-family="Helvetica,sans-Serif" font-size="32.00" fill="#29235c">notes &#160;&#160;&#160;</text>
<text text-anchor="start" x="1616.51" y="-375.99" font-family="Helvetica,sans-Serif" font-style="italic" font-size="32.00" fill="#29235c">VARCHAR</text>
<polygon fill="#e7e2dd" stroke="transparent" points="1412.94,-294.79 1412.94,-354.79 1783.94,-354.79 1783.94,-294.79 1412.94,-294.79"/>
<polygon fill="none" stroke="#29235c" points="1412.94,-294.79 1412.94,-354.79 1783.94,-354.79 1783.94,-294.79 1412.94,-294.79"/>
<text text-anchor="start" x="1423.94" y="-314.99" font-family="Helvetica,sans-Serif" font-size="32.00" fill="#29235c">created_date &#160;&#160;&#160;</text>
<text text-anchor="start" x="1687.61" y="-315.99" font-family="Helvetica,sans-Serif" font-style="italic" font-size="32.00" fill="#29235c">DATE</text>
<polygon fill="#e7e2dd" stroke="transparent" points="1412.94,-234.79 1412.94,-294.79 1783.94,-294.79 1783.94,-234.79 1412.94,-234.79"/>
<polygon fill="none" stroke="#29235c" points="1412.94,-234.79 1412.94,-294.79 1783.94,-294.79 1783.94,-234.79 1412.94,-234.79"/>
<text text-anchor="start" x="1423.94" y="-254.99" font-family="Helvetica,sans-Serif" font-size="32.00" fill="#29235c">updated_date &#160;&#160;&#160;</text>
<text text-anchor="start" x="1687.61" y="-255.99" font-family="Helvetica,sans-Serif" font-style="italic" font-size="32.00" fill="#29235c">DATE</text>
<polygon fill="#e7e2dd" stroke="transparent" points="1412.94,-174.79 1412.94,-234.79 1783.94,-234.79 1783.94,-174.79 1412.94,-174.79"/>
<polygon fill="none" stroke="#29235c" points="1412.94,-174.79 1412.94,-234.79 1783.94,-234.79 1783.94,-174.79 1412.94,-174.79"/>
<text text-anchor="start" x="1423.51" y="-194.99" font-family="Helvetica,sans-Serif" font-size="32.00" fill="#29235c">created_by &#160;&#160;&#160;</text>
<text text-anchor="start" x="1616.72" y="-195.99" font-family="Helvetica,sans-Serif" font-style="italic" font-size="32.00" fill="#29235c">VARCHAR</text>
<polygon fill="none" stroke="#29235c" stroke-width="2" points="1411.44,-173.79 1411.44,-775.79 1784.44,-775.79 1784.44,-173.79 1411.44,-173.79"/>
</g>
<!-- Owner -->
<g id="Owner" class="node">
<title>Owner</title>
<ellipse fill="none" stroke="black" stroke-width="0" cx="2249.83" cy="-504.79" rx="265.33" ry="384.83"/>
<polygon fill="#1d71b8" stroke="transparent" points="2064.83,-714.79 2064.83,-774.79 2435.83,-774.79 2435.83,-714.79 2064.83,-714.79"/>
<polygon fill="none" stroke="#29235c" points="2064.83,-714.79 2064.83,-774.79 2435.83,-774.79 2435.83,-714.79 2064.83,-714.79"/>
<text text-anchor="start" x="2140.96" y="-735.99" font-family="Helvetica,sans-Serif" font-weight="bold" font-size="32.00" fill="#ffffff"> &#160;&#160;&#160;&#160;&#160;&#160;Owner &#160;&#160;&#160;&#160;&#160;&#160;</text>
<polygon fill="#e7e2dd" stroke="transparent" points="2064.83,-654.79 2064.83,-714.79 2435.83,-714.79 2435.83,-654.79 2064.83,-654.79"/>
<polygon fill="none" stroke="#29235c" points="2064.83,-654.79 2064.83,-714.79 2435.83,-714.79 2435.83,-654.79 2064.83,-654.79"/>
<text text-anchor="start" x="2075.83" y="-675.99" font-family="Helvetica,sans-Serif" font-weight="bold" font-size="32.00" fill="#29235c">id</text>
<text text-anchor="start" x="2100.72" y="-675.99" font-family="Helvetica,sans-Serif" font-size="32.00" fill="#29235c"> &#160;&#160;&#160;</text>
<text text-anchor="start" x="2282.61" y="-675.99" font-family="Helvetica,sans-Serif" font-style="italic" font-size="32.00" fill="#29235c">INTEGER</text>
<polygon fill="#e7e2dd" stroke="transparent" points="2064.83,-594.79 2064.83,-654.79 2435.83,-654.79 2435.83,-594.79 2064.83,-594.79"/>
<polygon fill="none" stroke="#29235c" points="2064.83,-594.79 2064.83,-654.79 2435.83,-654.79 2435.83,-594.79 2064.83,-594.79"/>
<text text-anchor="start" x="2075.83" y="-614.99" font-family="Helvetica,sans-Serif" font-size="32.00" fill="#29235c">name &#160;&#160;&#160;</text>
<text text-anchor="start" x="2268.4" y="-615.99" font-family="Helvetica,sans-Serif" font-style="italic" font-size="32.00" fill="#29235c">VARCHAR</text>
<polygon fill="#e7e2dd" stroke="transparent" points="2064.83,-534.79 2064.83,-594.79 2435.83,-594.79 2435.83,-534.79 2064.83,-534.79"/>
<polygon fill="none" stroke="#29235c" points="2064.83,-534.79 2064.83,-594.79 2435.83,-594.79 2435.83,-534.79 2064.83,-534.79"/>
<text text-anchor="start" x="2075.83" y="-554.99" font-family="Helvetica,sans-Serif" font-size="32.00" fill="#29235c">address &#160;&#160;&#160;</text>
<text text-anchor="start" x="2268.4" y="-555.99" font-family="Helvetica,sans-Serif" font-style="italic" font-size="32.00" fill="#29235c">VARCHAR</text>
<polygon fill="#e7e2dd" stroke="transparent" points="2064.83,-474.79 2064.83,-534.79 2435.83,-534.79 2435.83,-474.79 2064.83,-474.79"/>
<polygon fill="none" stroke="#29235c" points="2064.83,-474.79 2064.83,-534.79 2435.83,-534.79 2435.83,-474.79 2064.83,-474.79"/>
<text text-anchor="start" x="2075.83" y="-494.99" font-family="Helvetica,sans-Serif" font-size="32.00" fill="#29235c">phone &#160;&#160;&#160;</text>
<text text-anchor="start" x="2268.4" y="-495.99" font-family="Helvetica,sans-Serif" font-style="italic" font-size="32.00" fill="#29235c">VARCHAR</text>
<polygon fill="#e7e2dd" stroke="transparent" points="2064.83,-414.79 2064.83,-474.79 2435.83,-474.79 2435.83,-414.79 2064.83,-414.79"/>
<polygon fill="none" stroke="#29235c" points="2064.83,-414.79 2064.83,-474.79 2435.83,-474.79 2435.83,-414.79 2064.83,-414.79"/>
<text text-anchor="start" x="2075.83" y="-434.99" font-family="Helvetica,sans-Serif" font-size="32.00" fill="#29235c">email &#160;&#160;&#160;</text>
<text text-anchor="start" x="2268.4" y="-435.99" font-family="Helvetica,sans-Serif" font-style="italic" font-size="32.00" fill="#29235c">VARCHAR</text>
<polygon fill="#e7e2dd" stroke="transparent" points="2064.83,-354.79 2064.83,-414.79 2435.83,-414.79 2435.83,-354.79 2064.83,-354.79"/>
<polygon fill="none" stroke="#29235c" points="2064.83,-354.79 2064.83,-414.79 2435.83,-414.79 2435.83,-354.79 2064.83,-354.79"/>
<text text-anchor="start" x="2075.83" y="-374.99" font-family="Helvetica,sans-Serif" font-size="32.00" fill="#29235c">created_date &#160;&#160;&#160;</text>
<text text-anchor="start" x="2339.5" y="-375.99" font-family="Helvetica,sans-Serif" font-style="italic" font-size="32.00" fill="#29235c">DATE</text>
<polygon fill="#e7e2dd" stroke="transparent" points="2064.83,-294.79 2064.83,-354.79 2435.83,-354.79 2435.83,-294.79 2064.83,-294.79"/>
<polygon fill="none" stroke="#29235c" points="2064.83,-294.79 2064.83,-354.79 2435.83,-354.79 2435.83,-294.79 2064.83,-294.79"/>
<text text-anchor="start" x="2075.83" y="-314.99" font-family="Helvetica,sans-Serif" font-size="32.00" fill="#29235c">updated_date &#160;&#160;&#160;</text>
<text text-anchor="start" x="2339.5" y="-315.99" font-family="Helvetica,sans-Serif" font-style="italic" font-size="32.00" fill="#29235c">DATE</text>
<polygon fill="#e7e2dd" stroke="transparent" points="2064.83,-234.79 2064.83,-294.79 2435.83,-294.79 2435.83,-234.79 2064.83,-234.79"/>
<polygon fill="none" stroke="#29235c" points="2064.83,-234.79 2064.83,-294.79 2435.83,-294.79 2435.83,-234.79 2064.83,-234.79"/>
<text text-anchor="start" x="2075.4" y="-254.99" font-family="Helvetica,sans-Serif" font-size="32.00" fill="#29235c">created_by &#160;&#160;&#160;</text>
<text text-anchor="start" x="2268.61" y="-255.99" font-family="Helvetica,sans-Serif" font-style="italic" font-size="32.00" fill="#29235c">VARCHAR</text>
<polygon fill="none" stroke="#29235c" stroke-width="2" points="2063.33,-233.79 2063.33,-775.79 2436.33,-775.79 2436.33,-233.79 2063.33,-233.79"/>
</g>
<!-- Dog&#45;&gt;Owner -->
<!-- Dog&#45;&gt;Owner -->
<g id="edge2" class="edge">
<title>Dog:e&#45;&gt;Owner:w</title>
<path fill="none" stroke="#29235c" stroke-width="3" d="M1784.94,-624.79C1908.26,-624.79 1935.58,-681.55 2053.65,-684.65"/>
<polygon fill="#29235c" stroke="#29235c" stroke-width="3" points="2053.78,-688.16 2063.83,-684.79 2053.87,-681.16 2053.78,-688.16"/>
<text text-anchor="middle" x="2057.6" y="-655.99" font-family="Helvetica,sans-Serif" font-size="32.00" fill="#29235c">*</text>
<text text-anchor="middle" x="1776.04" y="-595.99" font-family="Helvetica,sans-Serif" font-size="32.00" fill="#29235c">1</text>
</g>
<!-- Payment -->
<g id="Payment" class="node">
<title>Payment</title>
<ellipse fill="none" stroke="black" stroke-width="0" cx="322.44" cy="-1623.79" rx="322.38" ry="342.48"/>
<polygon fill="#1d71b8" stroke="transparent" points="96.44,-1803.79 96.44,-1863.79 548.44,-1863.79 548.44,-1803.79 96.44,-1803.79"/>
<polygon fill="none" stroke="#29235c" points="96.44,-1803.79 96.44,-1863.79 548.44,-1863.79 548.44,-1803.79 96.44,-1803.79"/>
<text text-anchor="start" x="197.06" y="-1824.99" font-family="Helvetica,sans-Serif" font-weight="bold" font-size="32.00" fill="#ffffff"> &#160;&#160;&#160;&#160;&#160;&#160;Payment &#160;&#160;&#160;&#160;&#160;&#160;</text>
<polygon fill="#e7e2dd" stroke="transparent" points="96.44,-1743.79 96.44,-1803.79 548.44,-1803.79 548.44,-1743.79 96.44,-1743.79"/>
<polygon fill="none" stroke="#29235c" points="96.44,-1743.79 96.44,-1803.79 548.44,-1803.79 548.44,-1743.79 96.44,-1743.79"/>
<text text-anchor="start" x="107.44" y="-1764.99" font-family="Helvetica,sans-Serif" font-weight="bold" font-size="32.00" fill="#29235c">id</text>
<text text-anchor="start" x="132.33" y="-1764.99" font-family="Helvetica,sans-Serif" font-size="32.00" fill="#29235c"> &#160;&#160;&#160;</text>
<text text-anchor="start" x="395.22" y="-1764.99" font-family="Helvetica,sans-Serif" font-style="italic" font-size="32.00" fill="#29235c">INTEGER</text>
<polygon fill="#e7e2dd" stroke="transparent" points="96.44,-1683.79 96.44,-1743.79 548.44,-1743.79 548.44,-1683.79 96.44,-1683.79"/>
<polygon fill="none" stroke="#29235c" points="96.44,-1683.79 96.44,-1743.79 548.44,-1743.79 548.44,-1683.79 96.44,-1683.79"/>
<text text-anchor="start" x="107.4" y="-1703.99" font-family="Helvetica,sans-Serif" font-size="32.00" fill="#29235c">walk_schedule_id &#160;&#160;&#160;</text>
<text text-anchor="start" x="395.33" y="-1704.99" font-family="Helvetica,sans-Serif" font-style="italic" font-size="32.00" fill="#29235c">INTEGER</text>
<polygon fill="#e7e2dd" stroke="transparent" points="96.44,-1623.79 96.44,-1683.79 548.44,-1683.79 548.44,-1623.79 96.44,-1623.79"/>
<polygon fill="none" stroke="#29235c" points="96.44,-1623.79 96.44,-1683.79 548.44,-1683.79 548.44,-1623.79 96.44,-1623.79"/>
<text text-anchor="start" x="107.44" y="-1643.99" font-family="Helvetica,sans-Serif" font-size="32.00" fill="#29235c">amount &#160;&#160;&#160;</text>
<text text-anchor="start" x="434.32" y="-1644.99" font-family="Helvetica,sans-Serif" font-style="italic" font-size="32.00" fill="#29235c">FLOAT</text>
<polygon fill="#e7e2dd" stroke="transparent" points="96.44,-1563.79 96.44,-1623.79 548.44,-1623.79 548.44,-1563.79 96.44,-1563.79"/>
<polygon fill="none" stroke="#29235c" points="96.44,-1563.79 96.44,-1623.79 548.44,-1623.79 548.44,-1563.79 96.44,-1563.79"/>
<text text-anchor="start" x="107.44" y="-1583.99" font-family="Helvetica,sans-Serif" font-size="32.00" fill="#29235c">date_paid &#160;&#160;&#160;</text>
<text text-anchor="start" x="452.11" y="-1584.99" font-family="Helvetica,sans-Serif" font-style="italic" font-size="32.00" fill="#29235c">DATE</text>
<polygon fill="#e7e2dd" stroke="transparent" points="96.44,-1503.79 96.44,-1563.79 548.44,-1563.79 548.44,-1503.79 96.44,-1503.79"/>
<polygon fill="none" stroke="#29235c" points="96.44,-1503.79 96.44,-1563.79 548.44,-1563.79 548.44,-1503.79 96.44,-1503.79"/>
<text text-anchor="start" x="107.44" y="-1523.99" font-family="Helvetica,sans-Serif" font-size="32.00" fill="#29235c">created_date &#160;&#160;&#160;</text>
<text text-anchor="start" x="452.11" y="-1524.99" font-family="Helvetica,sans-Serif" font-style="italic" font-size="32.00" fill="#29235c">DATE</text>
<polygon fill="#e7e2dd" stroke="transparent" points="96.44,-1443.79 96.44,-1503.79 548.44,-1503.79 548.44,-1443.79 96.44,-1443.79"/>
<polygon fill="none" stroke="#29235c" points="96.44,-1443.79 96.44,-1503.79 548.44,-1503.79 548.44,-1443.79 96.44,-1443.79"/>
<text text-anchor="start" x="107.44" y="-1463.99" font-family="Helvetica,sans-Serif" font-size="32.00" fill="#29235c">updated_date &#160;&#160;&#160;</text>
<text text-anchor="start" x="452.11" y="-1464.99" font-family="Helvetica,sans-Serif" font-style="italic" font-size="32.00" fill="#29235c">DATE</text>
<polygon fill="#e7e2dd" stroke="transparent" points="96.44,-1383.79 96.44,-1443.79 548.44,-1443.79 548.44,-1383.79 96.44,-1383.79"/>
<polygon fill="none" stroke="#29235c" points="96.44,-1383.79 96.44,-1443.79 548.44,-1443.79 548.44,-1383.79 96.44,-1383.79"/>
<text text-anchor="start" x="107.44" y="-1403.99" font-family="Helvetica,sans-Serif" font-size="32.00" fill="#29235c">created_by &#160;&#160;&#160;</text>
<text text-anchor="start" x="381.02" y="-1404.99" font-family="Helvetica,sans-Serif" font-style="italic" font-size="32.00" fill="#29235c">VARCHAR</text>
<polygon fill="none" stroke="#29235c" stroke-width="2" points="95.44,-1382.79 95.44,-1864.79 549.44,-1864.79 549.44,-1382.79 95.44,-1382.79"/>
</g>
<!-- WalkSchedule -->
<g id="WalkSchedule" class="node">
<title>WalkSchedule</title>
<ellipse fill="none" stroke="black" stroke-width="0" cx="946.05" cy="-1563.79" rx="265.33" ry="427.19"/>
<polygon fill="#1d71b8" stroke="transparent" points="761.05,-1803.79 761.05,-1863.79 1132.05,-1863.79 1132.05,-1803.79 761.05,-1803.79"/>
<polygon fill="none" stroke="#29235c" points="761.05,-1803.79 761.05,-1863.79 1132.05,-1863.79 1132.05,-1803.79 761.05,-1803.79"/>
<text text-anchor="start" x="782.06" y="-1824.99" font-family="Helvetica,sans-Serif" font-weight="bold" font-size="32.00" fill="#ffffff"> &#160;&#160;&#160;&#160;&#160;&#160;WalkSchedule &#160;&#160;&#160;&#160;&#160;&#160;</text>
<polygon fill="#e7e2dd" stroke="transparent" points="761.05,-1743.79 761.05,-1803.79 1132.05,-1803.79 1132.05,-1743.79 761.05,-1743.79"/>
<polygon fill="none" stroke="#29235c" points="761.05,-1743.79 761.05,-1803.79 1132.05,-1803.79 1132.05,-1743.79 761.05,-1743.79"/>
<text text-anchor="start" x="772.05" y="-1764.99" font-family="Helvetica,sans-Serif" font-weight="bold" font-size="32.00" fill="#29235c">id</text>
<text text-anchor="start" x="796.94" y="-1764.99" font-family="Helvetica,sans-Serif" font-size="32.00" fill="#29235c"> &#160;&#160;&#160;</text>
<text text-anchor="start" x="978.83" y="-1764.99" font-family="Helvetica,sans-Serif" font-style="italic" font-size="32.00" fill="#29235c">INTEGER</text>
<polygon fill="#e7e2dd" stroke="transparent" points="761.05,-1683.79 761.05,-1743.79 1132.05,-1743.79 1132.05,-1683.79 761.05,-1683.79"/>
<polygon fill="none" stroke="#29235c" points="761.05,-1683.79 761.05,-1743.79 1132.05,-1743.79 1132.05,-1683.79 761.05,-1683.79"/>
<text text-anchor="start" x="772.05" y="-1703.99" font-family="Helvetica,sans-Serif" font-size="32.00" fill="#29235c">walker_id &#160;&#160;&#160;</text>
<text text-anchor="start" x="978.83" y="-1704.99" font-family="Helvetica,sans-Serif" font-style="italic" font-size="32.00" fill="#29235c">INTEGER</text>
<polygon fill="#e7e2dd" stroke="transparent" points="761.05,-1623.79 761.05,-1683.79 1132.05,-1683.79 1132.05,-1623.79 761.05,-1623.79"/>
<polygon fill="none" stroke="#29235c" points="761.05,-1623.79 761.05,-1683.79 1132.05,-1683.79 1132.05,-1623.79 761.05,-1623.79"/>
<text text-anchor="start" x="772.05" y="-1643.99" font-family="Helvetica,sans-Serif" font-size="32.00" fill="#29235c">owner_id &#160;&#160;&#160;</text>
<text text-anchor="start" x="978.83" y="-1644.99" font-family="Helvetica,sans-Serif" font-style="italic" font-size="32.00" fill="#29235c">INTEGER</text>
<polygon fill="#e7e2dd" stroke="transparent" points="761.05,-1563.79 761.05,-1623.79 1132.05,-1623.79 1132.05,-1563.79 761.05,-1563.79"/>
<polygon fill="none" stroke="#29235c" points="761.05,-1563.79 761.05,-1623.79 1132.05,-1623.79 1132.05,-1563.79 761.05,-1563.79"/>
<text text-anchor="start" x="772.05" y="-1583.99" font-family="Helvetica,sans-Serif" font-size="32.00" fill="#29235c">dog_id &#160;&#160;&#160;</text>
<text text-anchor="start" x="978.83" y="-1584.99" font-family="Helvetica,sans-Serif" font-style="italic" font-size="32.00" fill="#29235c">INTEGER</text>
<polygon fill="#e7e2dd" stroke="transparent" points="761.05,-1503.79 761.05,-1563.79 1132.05,-1563.79 1132.05,-1503.79 761.05,-1503.79"/>
<polygon fill="none" stroke="#29235c" points="761.05,-1503.79 761.05,-1563.79 1132.05,-1563.79 1132.05,-1503.79 761.05,-1503.79"/>
<text text-anchor="start" x="772.05" y="-1523.99" font-family="Helvetica,sans-Serif" font-size="32.00" fill="#29235c">date_requested &#160;&#160;&#160;</text>
<text text-anchor="start" x="1035.72" y="-1524.99" font-family="Helvetica,sans-Serif" font-style="italic" font-size="32.00" fill="#29235c">DATE</text>
<polygon fill="#e7e2dd" stroke="transparent" points="761.05,-1443.79 761.05,-1503.79 1132.05,-1503.79 1132.05,-1443.79 761.05,-1443.79"/>
<polygon fill="none" stroke="#29235c" points="761.05,-1443.79 761.05,-1503.79 1132.05,-1503.79 1132.05,-1443.79 761.05,-1443.79"/>
<text text-anchor="start" x="772.05" y="-1463.99" font-family="Helvetica,sans-Serif" font-size="32.00" fill="#29235c">status &#160;&#160;&#160;</text>
<text text-anchor="start" x="964.62" y="-1464.99" font-family="Helvetica,sans-Serif" font-style="italic" font-size="32.00" fill="#29235c">VARCHAR</text>
<polygon fill="#e7e2dd" stroke="transparent" points="761.05,-1383.79 761.05,-1443.79 1132.05,-1443.79 1132.05,-1383.79 761.05,-1383.79"/>
<polygon fill="none" stroke="#29235c" points="761.05,-1383.79 761.05,-1443.79 1132.05,-1443.79 1132.05,-1383.79 761.05,-1383.79"/>
<text text-anchor="start" x="772.05" y="-1403.99" font-family="Helvetica,sans-Serif" font-size="32.00" fill="#29235c">created_date &#160;&#160;&#160;</text>
<text text-anchor="start" x="1035.72" y="-1404.99" font-family="Helvetica,sans-Serif" font-style="italic" font-size="32.00" fill="#29235c">DATE</text>
<polygon fill="#e7e2dd" stroke="transparent" points="761.05,-1323.79 761.05,-1383.79 1132.05,-1383.79 1132.05,-1323.79 761.05,-1323.79"/>
<polygon fill="none" stroke="#29235c" points="761.05,-1323.79 761.05,-1383.79 1132.05,-1383.79 1132.05,-1323.79 761.05,-1323.79"/>
<text text-anchor="start" x="772.05" y="-1343.99" font-family="Helvetica,sans-Serif" font-size="32.00" fill="#29235c">updated_date &#160;&#160;&#160;</text>
<text text-anchor="start" x="1035.72" y="-1344.99" font-family="Helvetica,sans-Serif" font-style="italic" font-size="32.00" fill="#29235c">DATE</text>
<polygon fill="#e7e2dd" stroke="transparent" points="761.05,-1263.79 761.05,-1323.79 1132.05,-1323.79 1132.05,-1263.79 761.05,-1263.79"/>
<polygon fill="none" stroke="#29235c" points="761.05,-1263.79 761.05,-1323.79 1132.05,-1323.79 1132.05,-1263.79 761.05,-1263.79"/>
<text text-anchor="start" x="771.62" y="-1283.99" font-family="Helvetica,sans-Serif" font-size="32.00" fill="#29235c">created_by &#160;&#160;&#160;</text>
<text text-anchor="start" x="964.83" y="-1284.99" font-family="Helvetica,sans-Serif" font-style="italic" font-size="32.00" fill="#29235c">VARCHAR</text>
<polygon fill="none" stroke="#29235c" stroke-width="2" points="759.55,-1262.79 759.55,-1864.79 1132.55,-1864.79 1132.55,-1262.79 759.55,-1262.79"/>
</g>
<!-- Payment&#45;&gt;WalkSchedule -->
<!-- Payment&#45;&gt;WalkSchedule -->
<g id="edge4" class="edge">
<title>Payment:e&#45;&gt;WalkSchedule:w</title>
<path fill="none" stroke="#29235c" stroke-width="3" d="M549.44,-1713.79C643.25,-1713.79 661.46,-1769.53 749.81,-1773.56"/>
<polygon fill="#29235c" stroke="#29235c" stroke-width="3" points="749.97,-1777.06 760.05,-1773.79 750.13,-1770.06 749.97,-1777.06"/>
<text text-anchor="middle" x="766.27" y="-1783.39" font-family="Helvetica,sans-Serif" font-size="32.00" fill="#29235c">*</text>
<text text-anchor="middle" x="540.55" y="-1723.39" font-family="Helvetica,sans-Serif" font-size="32.00" fill="#29235c">1</text>
</g>
<!-- WalkSchedule&#45;&gt;Dog -->
<!-- WalkSchedule&#45;&gt;Dog -->
<g id="edge6" class="edge">
<title>WalkSchedule:e&#45;&gt;Dog:w</title>
<path fill="none" stroke="#29235c" stroke-width="3" d="M1133.05,-1593.79C1286.93,-1593.79 1187.61,-1052.66 1247.21,-910.79 1293.99,-799.44 1288.03,-691.1 1401.69,-685.05"/>
<polygon fill="#29235c" stroke="#29235c" stroke-width="3" points="1402.03,-688.54 1411.94,-684.79 1401.85,-681.55 1402.03,-688.54"/>
<text text-anchor="middle" x="1405.71" y="-655.99" font-family="Helvetica,sans-Serif" font-size="32.00" fill="#29235c">*</text>
<text text-anchor="middle" x="1141.94" y="-1564.99" font-family="Helvetica,sans-Serif" font-size="32.00" fill="#29235c">1</text>
</g>
<!-- WalkSchedule&#45;&gt;Owner -->
<!-- WalkSchedule&#45;&gt;Owner -->
<g id="edge8" class="edge">
<title>WalkSchedule:e&#45;&gt;Owner:w</title>
<path fill="none" stroke="#29235c" stroke-width="3" d="M1133.05,-1653.79C1312.94,-1653.79 1115.6,-161.42 1247.21,-38.79 1304.23,14.35 1888.91,11.25 1948.66,-38.79 2169.52,-223.75 1781.86,-673.63 2053.45,-684.58"/>
<polygon fill="#29235c" stroke="#29235c" stroke-width="3" points="2053.76,-688.09 2063.83,-684.79 2053.9,-681.09 2053.76,-688.09"/>
<text text-anchor="middle" x="2057.6" y="-694.39" font-family="Helvetica,sans-Serif" font-size="32.00" fill="#29235c">*</text>
<text text-anchor="middle" x="1141.94" y="-1653.79" font-family="Helvetica,sans-Serif" font-size="32.00" fill="#29235c">1</text>
</g>
<!-- Walker -->
<g id="Walker" class="node">
<title>Walker</title>
<ellipse fill="none" stroke="black" stroke-width="0" cx="1597.94" cy="-1473.79" rx="350.95" ry="554.24"/>
<polygon fill="#1d71b8" stroke="transparent" points="1351.94,-1803.79 1351.94,-1863.79 1843.94,-1863.79 1843.94,-1803.79 1351.94,-1803.79"/>
<polygon fill="none" stroke="#29235c" points="1351.94,-1803.79 1351.94,-1863.79 1843.94,-1863.79 1843.94,-1803.79 1351.94,-1803.79"/>
<text text-anchor="start" x="1485.92" y="-1824.99" font-family="Helvetica,sans-Serif" font-weight="bold" font-size="32.00" fill="#ffffff"> &#160;&#160;&#160;&#160;&#160;&#160;Walker &#160;&#160;&#160;&#160;&#160;&#160;</text>
<polygon fill="#e7e2dd" stroke="transparent" points="1351.94,-1743.79 1351.94,-1803.79 1843.94,-1803.79 1843.94,-1743.79 1351.94,-1743.79"/>
<polygon fill="none" stroke="#29235c" points="1351.94,-1743.79 1351.94,-1803.79 1843.94,-1803.79 1843.94,-1743.79 1351.94,-1743.79"/>
<text text-anchor="start" x="1362.94" y="-1764.99" font-family="Helvetica,sans-Serif" font-weight="bold" font-size="32.00" fill="#29235c">id</text>
<text text-anchor="start" x="1387.83" y="-1764.99" font-family="Helvetica,sans-Serif" font-size="32.00" fill="#29235c"> &#160;&#160;&#160;</text>
<text text-anchor="start" x="1690.72" y="-1764.99" font-family="Helvetica,sans-Serif" font-style="italic" font-size="32.00" fill="#29235c">INTEGER</text>
<polygon fill="#e7e2dd" stroke="transparent" points="1351.94,-1683.79 1351.94,-1743.79 1843.94,-1743.79 1843.94,-1683.79 1351.94,-1683.79"/>
<polygon fill="none" stroke="#29235c" points="1351.94,-1683.79 1351.94,-1743.79 1843.94,-1743.79 1843.94,-1683.79 1351.94,-1683.79"/>
<text text-anchor="start" x="1362.94" y="-1703.99" font-family="Helvetica,sans-Serif" font-size="32.00" fill="#29235c">first_name &#160;&#160;&#160;</text>
<text text-anchor="start" x="1676.51" y="-1704.99" font-family="Helvetica,sans-Serif" font-style="italic" font-size="32.00" fill="#29235c">VARCHAR</text>
<polygon fill="#e7e2dd" stroke="transparent" points="1351.94,-1623.79 1351.94,-1683.79 1843.94,-1683.79 1843.94,-1623.79 1351.94,-1623.79"/>
<polygon fill="none" stroke="#29235c" points="1351.94,-1623.79 1351.94,-1683.79 1843.94,-1683.79 1843.94,-1623.79 1351.94,-1623.79"/>
<text text-anchor="start" x="1362.94" y="-1643.99" font-family="Helvetica,sans-Serif" font-size="32.00" fill="#29235c">last_name &#160;&#160;&#160;</text>
<text text-anchor="start" x="1676.51" y="-1644.99" font-family="Helvetica,sans-Serif" font-style="italic" font-size="32.00" fill="#29235c">VARCHAR</text>
<polygon fill="#e7e2dd" stroke="transparent" points="1351.94,-1563.79 1351.94,-1623.79 1843.94,-1623.79 1843.94,-1563.79 1351.94,-1563.79"/>
<polygon fill="none" stroke="#29235c" points="1351.94,-1563.79 1351.94,-1623.79 1843.94,-1623.79 1843.94,-1563.79 1351.94,-1563.79"/>
<text text-anchor="start" x="1362.94" y="-1583.99" font-family="Helvetica,sans-Serif" font-size="32.00" fill="#29235c">postal_code &#160;&#160;&#160;</text>
<text text-anchor="start" x="1676.51" y="-1584.99" font-family="Helvetica,sans-Serif" font-style="italic" font-size="32.00" fill="#29235c">VARCHAR</text>
<polygon fill="#e7e2dd" stroke="transparent" points="1351.94,-1503.79 1351.94,-1563.79 1843.94,-1563.79 1843.94,-1503.79 1351.94,-1503.79"/>
<polygon fill="none" stroke="#29235c" points="1351.94,-1503.79 1351.94,-1563.79 1843.94,-1563.79 1843.94,-1503.79 1351.94,-1503.79"/>
<text text-anchor="start" x="1362.94" y="-1523.99" font-family="Helvetica,sans-Serif" font-size="32.00" fill="#29235c">phone &#160;&#160;&#160;</text>
<text text-anchor="start" x="1676.51" y="-1524.99" font-family="Helvetica,sans-Serif" font-style="italic" font-size="32.00" fill="#29235c">VARCHAR</text>
<polygon fill="#e7e2dd" stroke="transparent" points="1351.94,-1443.79 1351.94,-1503.79 1843.94,-1503.79 1843.94,-1443.79 1351.94,-1443.79"/>
<polygon fill="none" stroke="#29235c" points="1351.94,-1443.79 1351.94,-1503.79 1843.94,-1503.79 1843.94,-1443.79 1351.94,-1443.79"/>
<text text-anchor="start" x="1362.94" y="-1463.99" font-family="Helvetica,sans-Serif" font-size="32.00" fill="#29235c">email &#160;&#160;&#160;</text>
<text text-anchor="start" x="1676.51" y="-1464.99" font-family="Helvetica,sans-Serif" font-style="italic" font-size="32.00" fill="#29235c">VARCHAR</text>
<polygon fill="#e7e2dd" stroke="transparent" points="1351.94,-1383.79 1351.94,-1443.79 1843.94,-1443.79 1843.94,-1383.79 1351.94,-1383.79"/>
<polygon fill="none" stroke="#29235c" points="1351.94,-1383.79 1351.94,-1443.79 1843.94,-1443.79 1843.94,-1383.79 1351.94,-1383.79"/>
<text text-anchor="start" x="1362.45" y="-1403.99" font-family="Helvetica,sans-Serif" font-size="32.00" fill="#29235c">max_dogs_per_walk &#160;&#160;&#160;</text>
<text text-anchor="start" x="1690.83" y="-1404.99" font-family="Helvetica,sans-Serif" font-style="italic" font-size="32.00" fill="#29235c">INTEGER</text>
<polygon fill="#e7e2dd" stroke="transparent" points="1351.94,-1323.79 1351.94,-1383.79 1843.94,-1383.79 1843.94,-1323.79 1351.94,-1323.79"/>
<polygon fill="none" stroke="#29235c" points="1351.94,-1323.79 1351.94,-1383.79 1843.94,-1383.79 1843.94,-1323.79 1351.94,-1323.79"/>
<text text-anchor="start" x="1362.94" y="-1343.99" font-family="Helvetica,sans-Serif" font-size="32.00" fill="#29235c">base_price &#160;&#160;&#160;</text>
<text text-anchor="start" x="1729.82" y="-1344.99" font-family="Helvetica,sans-Serif" font-style="italic" font-size="32.00" fill="#29235c">FLOAT</text>
<polygon fill="#e7e2dd" stroke="transparent" points="1351.94,-1263.79 1351.94,-1323.79 1843.94,-1323.79 1843.94,-1263.79 1351.94,-1263.79"/>
<polygon fill="none" stroke="#29235c" points="1351.94,-1263.79 1351.94,-1323.79 1843.94,-1323.79 1843.94,-1263.79 1351.94,-1263.79"/>
<text text-anchor="start" x="1362.94" y="-1283.99" font-family="Helvetica,sans-Serif" font-size="32.00" fill="#29235c">availability &#160;&#160;&#160;</text>
<text text-anchor="start" x="1676.51" y="-1284.99" font-family="Helvetica,sans-Serif" font-style="italic" font-size="32.00" fill="#29235c">VARCHAR</text>
<polygon fill="#e7e2dd" stroke="transparent" points="1351.94,-1203.79 1351.94,-1263.79 1843.94,-1263.79 1843.94,-1203.79 1351.94,-1203.79"/>
<polygon fill="none" stroke="#29235c" points="1351.94,-1203.79 1351.94,-1263.79 1843.94,-1263.79 1843.94,-1203.79 1351.94,-1203.79"/>
<text text-anchor="start" x="1362.94" y="-1223.99" font-family="Helvetica,sans-Serif" font-size="32.00" fill="#29235c">created_date &#160;&#160;&#160;</text>
<text text-anchor="start" x="1747.61" y="-1224.99" font-family="Helvetica,sans-Serif" font-style="italic" font-size="32.00" fill="#29235c">DATE</text>
<polygon fill="#e7e2dd" stroke="transparent" points="1351.94,-1143.79 1351.94,-1203.79 1843.94,-1203.79 1843.94,-1143.79 1351.94,-1143.79"/>
<polygon fill="none" stroke="#29235c" points="1351.94,-1143.79 1351.94,-1203.79 1843.94,-1203.79 1843.94,-1143.79 1351.94,-1143.79"/>
<text text-anchor="start" x="1362.94" y="-1163.99" font-family="Helvetica,sans-Serif" font-size="32.00" fill="#29235c">updated_date &#160;&#160;&#160;</text>
<text text-anchor="start" x="1747.61" y="-1164.99" font-family="Helvetica,sans-Serif" font-style="italic" font-size="32.00" fill="#29235c">DATE</text>
<polygon fill="#e7e2dd" stroke="transparent" points="1351.94,-1083.79 1351.94,-1143.79 1843.94,-1143.79 1843.94,-1083.79 1351.94,-1083.79"/>
<polygon fill="none" stroke="#29235c" points="1351.94,-1083.79 1351.94,-1143.79 1843.94,-1143.79 1843.94,-1083.79 1351.94,-1083.79"/>
<text text-anchor="start" x="1362.94" y="-1103.99" font-family="Helvetica,sans-Serif" font-size="32.00" fill="#29235c">created_by &#160;&#160;&#160;</text>
<text text-anchor="start" x="1676.51" y="-1104.99" font-family="Helvetica,sans-Serif" font-style="italic" font-size="32.00" fill="#29235c">VARCHAR</text>
<polygon fill="none" stroke="#29235c" stroke-width="2" points="1350.94,-1082.79 1350.94,-1864.79 1844.94,-1864.79 1844.94,-1082.79 1350.94,-1082.79"/>
</g>
<!-- WalkSchedule&#45;&gt;Walker -->
<!-- WalkSchedule&#45;&gt;Walker -->
<g id="edge10" class="edge">
<title>WalkSchedule:e&#45;&gt;Walker:w</title>
<path fill="none" stroke="#29235c" stroke-width="3" d="M1133.05,-1713.79C1230.06,-1713.79 1249.23,-1769.76 1340.92,-1773.58"/>
<polygon fill="#29235c" stroke="#29235c" stroke-width="3" points="1340.87,-1777.08 1350.94,-1773.79 1341.01,-1770.08 1340.87,-1777.08"/>
<text text-anchor="middle" x="1344.71" y="-1783.39" font-family="Helvetica,sans-Serif" font-size="32.00" fill="#29235c">*</text>
<text text-anchor="middle" x="1141.94" y="-1723.39" font-family="Helvetica,sans-Serif" font-size="32.00" fill="#29235c">1</text>
</g>
</g>
</svg>
